<svg version="1.1" id="Layer_1" xmlns="http://www.w3.org/2000/svg" xmlns:xlink="http://www.w3.org/1999/xlink" x="0px" y="0px"
	 width="100%" viewBox="0 0 2272 2272" enable-background="new 0 0 2272 2272" xml:space="preserve">
<path fill="#FFFFFF" opacity="1.000000" stroke="none" 
	d="
M1502.000000,2274.000000 
	C1001.333313,2274.000000 501.666656,2274.000000 2.000000,2274.000000 
	C2.000000,1516.666626 2.000000,759.333313 2.000000,2.000000 
	C759.333313,2.000000 1516.666626,2.000000 2274.000000,2.000000 
	C2274.000000,759.333313 2274.000000,1516.666626 2274.000000,2274.000000 
	C2017.000000,2274.000000 1760.000000,2274.000000 1502.000000,2274.000000 
M1728.982666,1641.792236 
	C1734.638062,1641.791504 1740.333496,1641.363281 1745.939331,1641.890259 
	C1754.397827,1642.685181 1761.406494,1639.977539 1768.299927,1635.307251 
	C1812.149780,1605.598877 1835.027344,1564.105957 1835.140381,1511.437622 
	C1835.580688,1306.107666 1835.391846,1100.775879 1835.128296,895.445312 
	C1835.112671,883.238037 1833.585205,870.748352 1830.725708,858.880615 
	C1820.942017,818.274597 1797.335938,787.497253 1761.336670,766.488525 
	C1716.182617,740.137268 1670.806519,714.166748 1625.528809,688.027283 
	C1609.699951,678.888977 1593.878784,669.737183 1576.881470,659.913879 
	C1576.881470,586.284973 1576.881470,512.441650 1576.881470,438.441711 
	C1523.012207,438.441711 1470.596069,438.441711 1417.454468,438.441711 
	C1417.454468,481.092865 1417.455444,523.052429 1417.432251,565.012024 
	C1417.432129,565.248718 1417.130859,565.531494 1416.904785,565.709534 
	C1416.648193,565.911438 1416.317871,566.019531 1415.552368,566.401611 
	C1413.778442,565.589783 1411.611328,564.805908 1409.649170,563.668091 
	C1389.484253,551.974487 1369.380127,540.175964 1349.205811,528.498779 
	C1308.856812,505.144348 1268.465942,481.862701 1228.109497,458.521240 
	C1204.551758,444.895782 1179.336792,437.680542 1151.975952,437.745789 
	C1123.133789,437.814606 1097.291016,446.941040 1072.602417,461.278107 
	C981.605896,514.121155 890.391418,566.588806 799.257385,619.195129 
	C714.472839,668.136292 629.483521,716.727234 544.978882,766.147034 
	C496.243835,794.648132 470.908630,837.659119 470.758087,894.545715 
	C470.580811,961.543579 470.872559,1028.542480 470.834686,1095.540894 
	C470.756439,1233.872314 470.583038,1372.203613 470.473053,1510.535034 
	C470.435150,1558.199219 489.349579,1596.585083 525.685730,1627.439331 
	C538.635986,1638.435669 552.090454,1636.872192 566.575317,1636.376587 
	C566.722717,1634.017944 566.855164,1632.708008 566.879272,1631.395996 
	C568.342041,1551.776123 569.835693,1472.156982 571.238892,1392.536011 
	C572.507080,1320.574829 573.660950,1248.611694 574.892334,1176.649902 
	C576.203552,1100.024536 577.522461,1023.399231 578.884521,946.774780 
	C579.725403,899.469299 580.642700,852.165222 581.578308,804.861511 
	C581.618591,802.823425 582.188293,800.795776 582.637329,797.971252 
	C602.285645,814.233093 620.859070,829.926208 639.845459,845.102722 
	C644.834167,849.090332 646.633179,853.197205 646.431335,859.445801 
	C645.592224,885.417542 645.131958,911.402649 644.679932,937.385437 
	C643.451172,1008.013611 642.343567,1078.643921 641.096008,1149.271606 
	C640.372253,1190.243164 639.408203,1231.210205 638.663757,1272.181274 
	C637.283630,1348.133911 635.996155,1424.088135 634.648193,1500.041260 
	C634.009705,1536.018188 633.282288,1571.993774 632.679382,1607.971191 
	C632.514343,1617.817627 632.654297,1627.669067 632.654297,1637.404053 
	C636.274841,1637.404053 638.804565,1637.404053 642.077332,1637.404053 
	C647.627441,1378.968994 653.167236,1121.013794 658.734619,861.773743 
	C661.711426,863.917236 663.837891,865.272888 665.768372,866.865906 
	C683.761536,881.712158 701.583313,896.770874 719.777710,911.365417 
	C724.938904,915.505493 727.032898,919.838196 726.865479,926.513916 
	C725.712524,972.480469 724.894958,1018.455750 724.083740,1064.430298 
	C723.867981,1076.655029 724.051086,1088.886597 724.051086,1101.877563 
	C928.200012,1100.879517 1131.629272,1099.596436 1335.253296,1099.349976 
	C1334.531006,1142.757446 1333.829834,1184.892822 1333.109741,1228.167969 
	C1128.586548,1228.167969 925.379150,1228.167969 722.456055,1228.167969 
	C719.782837,1239.310059 713.088440,1629.503906 715.427429,1638.106934 
	C755.806702,1638.106934 796.438660,1637.977905 837.069580,1638.130615 
	C973.058594,1638.641602 1109.047363,1639.231567 1245.036133,1639.833740 
	C1342.690918,1640.266235 1440.345459,1640.809082 1538.000366,1641.221558 
	C1600.996094,1641.487549 1663.992432,1641.607056 1728.982666,1641.792236 
z"/>
<path fill="#1A1915" opacity="1.000000" stroke="none" 
	d="
M1727.985596,1641.792236 
	C1663.992432,1641.607056 1600.996094,1641.487549 1538.000366,1641.221558 
	C1440.345459,1640.809082 1342.690918,1640.266235 1245.036133,1639.833740 
	C1109.047363,1639.231567 973.058594,1638.641602 837.069580,1638.130615 
	C796.438660,1637.977905 755.806702,1638.106934 715.427429,1638.106934 
	C713.088440,1629.503906 719.782837,1239.310059 722.456055,1228.167969 
	C925.379150,1228.167969 1128.586548,1228.167969 1333.109741,1228.167969 
	C1333.829834,1184.892822 1334.531006,1142.757446 1335.253296,1099.349976 
	C1131.629272,1099.596436 928.200012,1100.879517 724.051086,1101.877563 
	C724.051086,1088.886597 723.867981,1076.655029 724.083740,1064.430298 
	C724.894958,1018.455750 725.712524,972.480469 726.865479,926.513916 
	C727.032898,919.838196 724.938904,915.505493 719.777710,911.365417 
	C701.583313,896.770874 683.761536,881.712158 665.768372,866.865906 
	C663.837891,865.272888 661.711426,863.917236 658.734619,861.773743 
	C653.167236,1121.013794 647.627441,1378.968994 642.077332,1637.404053 
	C638.804565,1637.404053 636.274841,1637.404053 632.654297,1637.404053 
	C632.654297,1627.669067 632.514343,1617.817627 632.679382,1607.971191 
	C633.282288,1571.993774 634.009705,1536.018188 634.648193,1500.041260 
	C635.996155,1424.088135 637.283630,1348.133911 638.663757,1272.181274 
	C639.408203,1231.210205 640.372253,1190.243164 641.096008,1149.271606 
	C642.343567,1078.643921 643.451172,1008.013611 644.679932,937.385437 
	C645.131958,911.402649 645.592224,885.417542 646.431335,859.445801 
	C646.633179,853.197205 644.834167,849.090332 639.845459,845.102722 
	C620.859070,829.926208 602.285645,814.233093 582.637329,797.971252 
	C582.188293,800.795776 581.618591,802.823425 581.578308,804.861511 
	C580.642700,852.165222 579.725403,899.469299 578.884521,946.774780 
	C577.522461,1023.399231 576.203552,1100.024536 574.892334,1176.649902 
	C573.660950,1248.611694 572.507080,1320.574829 571.238892,1392.536011 
	C569.835693,1472.156982 568.342041,1551.776123 566.879272,1631.395996 
	C566.855164,1632.708008 566.722717,1634.017944 566.575317,1636.376587 
	C552.090454,1636.872192 538.635986,1638.435669 525.685730,1627.439331 
	C489.349579,1596.585083 470.435150,1558.199219 470.473053,1510.535034 
	C470.583038,1372.203613 470.756439,1233.872314 470.834686,1095.540894 
	C470.872559,1028.542480 470.580811,961.543579 470.758087,894.545715 
	C470.908630,837.659119 496.243835,794.648132 544.978882,766.147034 
	C629.483521,716.727234 714.472839,668.136292 799.257385,619.195129 
	C890.391418,566.588806 981.605896,514.121155 1072.602417,461.278107 
	C1097.291016,446.941040 1123.133789,437.814606 1151.975952,437.745789 
	C1179.336792,437.680542 1204.551758,444.895782 1228.109497,458.521240 
	C1268.465942,481.862701 1308.856812,505.144348 1349.205811,528.498779 
	C1369.380127,540.175964 1389.484253,551.974487 1409.649170,563.668091 
	C1411.611328,564.805908 1413.778442,565.589783 1415.552368,566.401611 
	C1416.317871,566.019531 1416.648193,565.911438 1416.904785,565.709534 
	C1417.130859,565.531494 1417.432129,565.248718 1417.432251,565.012024 
	C1417.455444,523.052429 1417.454468,481.092865 1417.454468,438.441711 
	C1470.596069,438.441711 1523.012207,438.441711 1576.881470,438.441711 
	C1576.881470,512.441650 1576.881470,586.284973 1576.881470,659.913879 
	C1593.878784,669.737183 1609.699951,678.888977 1625.528809,688.027283 
	C1670.806519,714.166748 1716.182617,740.137268 1761.336670,766.488525 
	C1797.335938,787.497253 1820.942017,818.274597 1830.725708,858.880615 
	C1833.585205,870.748352 1835.112671,883.238037 1835.128296,895.445312 
	C1835.391846,1100.775879 1835.580688,1306.107666 1835.140381,1511.437622 
	C1835.027344,1564.105957 1812.149780,1605.598877 1768.299927,1635.307251 
	C1761.406494,1639.977539 1754.397827,1642.685181 1745.939331,1641.890259 
	C1740.333496,1641.363281 1734.638062,1641.791504 1727.985596,1641.792236 
M740.623901,911.176514 
	C743.727112,911.965637 746.828125,913.415222 749.933899,913.425476 
	C761.254944,913.462891 772.576294,912.897217 783.899780,912.777588 
	C850.871887,912.069824 917.844543,911.416321 984.817139,910.758362 
	C1053.456543,910.084045 1122.096191,909.431641 1190.735596,908.758240 
	C1257.708008,908.101257 1324.680054,907.410522 1391.652588,906.769775 
	C1463.958496,906.078125 1536.264648,905.436890 1608.570435,904.748047 
	C1619.447510,904.644470 1630.323242,904.401733 1641.740845,904.214478 
	C1641.740845,861.120117 1641.740845,818.988892 1641.740845,776.088196 
	C1637.979370,776.088196 1634.707886,776.051514 1631.437378,776.093933 
	C1602.453979,776.469604 1573.470947,776.895386 1544.487183,777.236694 
	C1496.508789,777.801575 1448.529541,778.286926 1400.551270,778.856506 
	C1335.249634,779.631775 1269.949097,780.484192 1204.647339,781.247620 
	C1155.335571,781.824158 1106.022095,782.270325 1056.710327,782.851440 
	C992.407959,783.609253 928.107117,784.497437 863.804504,785.230896 
	C775.840759,786.234253 687.875977,787.140381 599.912048,788.123291 
	C597.883240,788.145935 595.859070,788.585388 592.377625,789.006409 
	C642.275085,830.090576 690.879639,870.110229 740.623901,911.176514 
z"/>
<path fill="#FEFDFB" opacity="1.000000" stroke="none" 
	d="
M740.054077,910.653198 
	C690.879639,870.110229 642.275085,830.090576 592.377625,789.006409 
	C595.859070,788.585388 597.883240,788.145935 599.912048,788.123291 
	C687.875977,787.140381 775.840759,786.234253 863.804504,785.230896 
	C928.107117,784.497437 992.407959,783.609253 1056.710327,782.851440 
	C1106.022095,782.270325 1155.335571,781.824158 1204.647339,781.247620 
	C1269.949097,780.484192 1335.249634,779.631775 1400.551270,778.856506 
	C1448.529541,778.286926 1496.508789,777.801575 1544.487183,777.236694 
	C1573.470947,776.895386 1602.453979,776.469604 1631.437378,776.093933 
	C1634.707886,776.051514 1637.979370,776.088196 1641.740845,776.088196 
	C1641.740845,818.988892 1641.740845,861.120117 1641.740845,904.214478 
	C1630.323242,904.401733 1619.447510,904.644470 1608.570435,904.748047 
	C1536.264648,905.436890 1463.958496,906.078125 1391.652588,906.769775 
	C1324.680054,907.410522 1257.708008,908.101257 1190.735596,908.758240 
	C1122.096191,909.431641 1053.456543,910.084045 984.817139,910.758362 
	C917.844543,911.416321 850.871887,912.069824 783.899780,912.777588 
	C772.576294,912.897217 761.254944,913.462891 749.933899,913.425476 
	C746.828125,913.415222 743.727112,911.965637 740.054077,910.653198 
z"/>
</svg>